<svg xmlns="http://www.w3.org/2000/svg" xmlns:inkscape="http://www.inkscape.org/namespaces/inkscape" xmlns:sodipodi="http://sodipodi.sourceforge.net/DTD/sodipodi-0.dtd" xmlns:xlink="http://www.w3.org/1999/xlink" inkscape:version="1.3.2 (091e20e, 2023-11-25, custom)" sodipodi:docname="new_iceless_upscale_transparent_optimized_elements_fond.svg" xml:space="preserve" viewBox="0 0 1464 1464"><sodipodi:namedview inkscape:current-layer="svg31" inkscape:cx="471.3" inkscape:cy="836.3" inkscape:deskcolor="#505050" inkscape:pagecheckerboard="0" inkscape:pageopacity="0" inkscape:showpageshadow="0" inkscape:window-height="991" inkscape:window-maximized="1" inkscape:window-width="1920" inkscape:window-x="-9" inkscape:window-y="593" inkscape:zoom=".4" bordercolor="#eeeeee" borderopacity="1" pagecolor="#505050" showgrid="false"/><defs><linearGradient id="e"><stop offset="0" style="stop-color:#51e3ff;stop-opacity:1"/><stop offset="1" style="stop-color:#2d94d5;stop-opacity:1"/></linearGradient><linearGradient id="d"><stop offset="0" style="stop-color:#51e3ff;stop-opacity:1"/><stop offset="1" style="stop-color:#2d94d5;stop-opacity:1"/></linearGradient><linearGradient id="c"><stop offset="0" style="stop-color:#53e3f8;stop-opacity:1"/><stop offset=".8" style="stop-color:#3096d9;stop-opacity:1"/></linearGradient><linearGradient id="b"><stop offset="0" style="stop-color:#52e3fa;stop-opacity:1"/><stop offset=".3" style="stop-color:#05c2e3;stop-opacity:1"/><stop offset="1" style="stop-color:#54e3fa;stop-opacity:1"/></linearGradient><linearGradient id="a"><stop offset="0" style="stop-color:#54e4fa;stop-opacity:1"/><stop offset="1" style="stop-color:#3095d7;stop-opacity:1"/></linearGradient><linearGradient xlink:href="#a" id="g" x1="747.9" x2="786.1" y1="1140.4" y2="1148.4" gradientUnits="userSpaceOnUse"/><radialGradient xlink:href="#b" id="f" cx="1052.5" cy="747.3" r="387" fx="1052.5" fy="747.3" gradientTransform="matrix(2.3740163 0 0 1.5892068 -1446 -245)" gradientUnits="userSpaceOnUse"/><radialGradient xlink:href="#c" id="j" cx="1147.3" cy="364.9" r="92" fx="1147.3" fy="364.9" gradientTransform="matrix(1 0 0 .93741315 0 21)" gradientUnits="userSpaceOnUse"/><radialGradient xlink:href="#d" id="i" cx="735.5" cy="392.4" r="142.1" fx="735.5" fy="392.4" gradientTransform="matrix(1 0 0 .58088335 0 150)" gradientUnits="userSpaceOnUse"/><radialGradient xlink:href="#e" id="h" cx="376.1" cy="315.5" r="112.7" fx="376.1" fy="315.5" gradientTransform="matrix(1 0 0 .918299 0 31)" gradientUnits="userSpaceOnUse"/></defs><path inkscape:label="background" d="M0 0h1464v1464H0z" style="fill:#003eb0;stroke-width:17.88;stroke-linejoin:bevel;-inkscape-stroke:none"/><g inkscape:label="bottom"><path inkscape:label="bottom_left" d="m453 965-59-3-48-2h-32l-24-2-2 11 4 20 25 36 39 38 22 22 13 8 56 22 46 17 64 44 113 76 37 28 1-14-12-36-27-25-105-81-51-54-27-29 61-4 82 15 80 2 109 11 79-7 48-15 63-34 49-58 5-22-96 1-78 8-110 8H675l-154-1-26 3-33 9z" style="fill:url(#f);stroke-width:16.5387;stroke-linejoin:bevel;-inkscape-stroke:none"/><path inkscape:label="bottom_right" d="m1065 934-21 34-31 34-43 30-51 20-44 11-84 1-66-4c-6-1-68-11-75-11l-71-1-57-7v35l24 29 55 54 48 31 38 35 19 33 11 30 14 11 25-12 40-29 53-41 55-31 54-31 82-56 76-63 48-71v-7l-40-11z" style="fill:url(#g);stroke-width:16.5387;stroke-linejoin:bevel;-inkscape-stroke:none"/><path inkscape:label="bottom_back" d="m958 1152-57 34-35 19-66 39-18 12-16 11-7 6-13 10-7 5c-4 1-7 5-12 2l-9-13-13-27-5-12-7-13c-4-10-11-17-19-23l-18-14-37-31-6-4-23-28-16-17-24-35-8-13-3-10 36 2c2 0 25 10 31 10h26l29 3 17 6 26 11c7 1 13 3 20 3h67c18-1 36 0 53-5 8-2 17-1 26-2l22-4 16-7 25-11 8-3 7-3 54-29c15-8 23-15 40-28l7-7 20-40 1-2h1l1-1 37 9 46 7 6 3-5 4-27 15-8 7-5 6-3 4-23 41h-1l-3 4-14 15-14 10-4 4-28 28-34 27m2 7 21-15 28-15 21-14c8-4 16-10 23-15l20-15 20-12 11-7 34-26 1-5 3-16 3-17c2-6 6-15-1-19l-5-2-36-10-73-22-34-1h-60l-33 5-19 1-4 1h-41l-38 6h-41l-26-1-36 1h-95l-89-1-51 6-27 11c-5 2-10 4-16 4l-92 1h-66c-5 0-11-2-12 5 0 8-1 16 2 24 3 10 10 18 16 28 7 12 16 23 25 33 5 5 8 11 14 15l37 25 24 13 11 6 4 2 23 11 33 13c8 2 16 1 23 6l11 8c10 8 21 15 30 24 10 10 21 17 32 25 9 6 19 11 27 18 12 12 27 20 41 28s29 15 42 26c14 12 29 24 42 37l11 8c7-2 13-6 19-10l11-8 7-5 6-4 11-8 15-11c10-8 17-15 25-24l6-5 4-3 10-7 11-9 13-8 8-5 5-3 13-7 22-11a2735 2735 0 0 1 56-35m-546-120 4 3c18 9 41 19 65 42l19 23 19 25 6 4 23 18c9 7 18 12 28 17 14 7 27 16 39 25l42 32c7 6 12 14 17 21 6 8 18 17 13 24h-1l-3-3-10-10c-10-7-18-18-29-25l-11-7-17-10-26-13-33-17-20-11-16-12-24-15-38-21-21-8-40-11-24-10c-7-3-10-8-14-14-12-17-27-32-41-47s-27-32-40-48c-3-3-4-8-2-13 2-6 8-10 16-8 14 4 28 3 42 5 17 2 34 4 51 4l52 1 6-3c8-5 16-11 26-13l45-2c27-3 54-2 82-2l58 1 61 1 87-1 46-5 13-1 45-1 30-3c8-1 16-3 25-3h76l-14 12-18 19-8 11-9 12-6 10-5 8-8 8-38 17c-12 7-25 13-39 16-12 2-15 1-31 1l-21-5-43-16c-7-3-15-4-22-6l-4-1h-37l-14 1-10 1-10 1-21 3h-4l-28 6-9 2h-11l-28-4-29-6-31-4-53 1-57 1h-18c-3 0-1 3 0 3z" style="fill:#fff"/></g><path inkscape:label="s2" d="M1313 779c3-6 1-13-5-15l-27-7c-19-4-38-9-55-21a55 55 0 0 1-22-40c-1-9 0-18 2-27 3-13 11-24 22-32 13-10 29-16 46-18l39-2c16 1 32 4 47 12 20 10 23 33 13 49l-7 9c-14-7-29-10-44-12-12-2-24-2-36 1-6 2-8 5-9 10-1 6 5 10 12 12l51 14c12 4 23 10 32 19s14 20 16 33c2 14 1 27-5 40-9 17-24 28-42 34a183 183 0 0 1-64 7c-17-1-34-3-49-11-10-5-19-12-22-23s-2-23 6-33l2-3c3-3 5-4 10-2 13 5 26 11 39 13 13 3 28 4 41 0 4-1 6-4 9-7z" style="fill:#fff"/><path inkscape:label="s1" d="M1062 755c-12-5-25-8-37-14a53 53 0 0 1-30-49 64 64 0 0 1 41-65c22-10 46-11 69-10 14 1 28 3 41 9s23 15 24 30c1 12-4 22-13 31-18-7-36-12-55-13-9-1-18 0-27 3-4 2-7 4-7 10 0 5 3 8 7 9l30 8c18 4 35 10 50 20 16 11 25 27 25 47 0 10-1 20-5 29-5 15-16 25-29 32-14 8-29 11-45 12l-32 1c-17-1-35-3-50-11-11-6-20-14-23-27-2-12 4-29 14-35h5c11 5 22 10 34 13 15 4 31 5 46 1 9-2 12-8 10-16-1-3-5-6-8-7l-24-6z" style="fill:#fff"/><path inkscape:label="e2" d="M871 617c-10 0-20 2-29 3-27 4-49 17-65 38a121 121 0 0 0-20 77c1 20 5 38 15 56 7 12 16 22 28 31 22 17 49 22 76 23l39-3c13-3 26-7 36-16 10-7 12-20 11-29-2-10-8-18-17-24-18 11-38 15-59 16-10 0-20-3-29-5-12-4-21-12-26-24l5-1 38-5 37-6c12-2 25-3 37-6 11-3 20-10 22-22v-24c-3-24-15-43-34-58-19-14-42-20-65-21zm-6 55c6 0 11 1 17 3 9 4 15 11 18 20 1 3-2 4-4 4l-12 2-29 5-28 4c-1-11 6-26 18-32 7-4 13-6 20-6z" style="fill:#fff"/><path inkscape:label="l" d="M725 723v109c0 5-1 6-5 6-12 1-24 3-37 3-5 0-12-2-17-4-12-4-16-14-16-25V600l-1-20 1-26c0-2 2-4 4-4l36-3c8 0 16 1 23 6s10 12 11 20l1 38z" style="fill:#fff"/><path inkscape:label="e1" d="m517 617-13 1a103 103 0 0 0-76 36c-16 20-23 41-24 66a142 142 0 0 0 13 67c6 13 15 23 26 32 11 8 23 15 36 19 19 5 39 8 59 6 16-1 32-3 47-9 9-4 18-9 22-20 6-18 0-29-12-40l-4-1-20 8c-12 6-25 6-38 7l-17-2c-16-3-31-9-37-27l12-2 50-7 50-8c17-4 28-13 28-33 0-9-2-19-5-28-9-30-30-48-59-58-12-4-25-7-38-7zm-4 55c18 0 29 6 35 26l-49 8-25 4c2-26 18-37 36-38h3z" style="fill:#fff"/><path inkscape:label="c" d="M258 631c12-7 25-10 39-12l25-2c16 1 32 3 46 12 11 7 17 17 17 30 0 10-5 18-12 25-1 1-3 2-4 1-12-5-24-9-37-9s-26 3-37 12a52 52 0 0 0-18 42c0 12 1 23 8 33 8 12 20 18 34 21 16 3 32 0 48-7 3-1 5-1 7 2 9 7 14 16 14 28s-7 21-17 27c-13 7-27 10-42 10-19 1-38-1-56-8-32-12-55-33-66-65-6-17-7-35-6-53 2-22 9-43 23-61 9-11 21-19 34-26z" style="fill:#fff"/><g inkscape:label="i"><path inkscape:label="i_top" d="M137 604c-10 0-19 0-28-6a40 40 0 0 1-15-45c5-21 27-31 47-27 16 3 27 12 31 28 7 23-8 49-35 50z" style="fill:#fff"/><path inkscape:label="i_bottom" d="M132 841c-10 0-21-1-28-9-4-4-6-10-8-16l-1-22V627l17-3 23-1c5 0 11 1 16 3 12 3 19 14 19 26v181c0 3-1 5-4 5z" style="fill:#fff"/></g><g inkscape:label="small_left"><path inkscape:label="small_left_back" fill="#38AEE6" d="m280 530-3 5c-4 5-9 6-15 5-3-1-6-8-5-13l3-8c5 0 8 0 9-5l3-2c2 1 5 1 6 3v7l-2 6 4 2z"/><path inkscape:label="small_left_front" fill="#DCF7FD" d="m280 530-4-2 2-6v-7c-1-2-4-2-6-3l-3 2c-1 5-4 5-9 5l3-9c2-5 11-7 16-3 8 5 7 15 3 20l-2 3z" style="fill:#fff"/></g><g inkscape:label="small_right"><path inkscape:label="small_right_back" fill="#38AEE6" d="M922 327c-3 2-7 3-11 1-3-1-3-3-1-6l4-6h10v4c-1 2-4 4-2 7z"/><path inkscape:label="small_right_front" fill="#DCF7FD" d="M922 327c-2-3 1-5 2-7v-4h-10c1-4 6-7 10-7 5 1 6 3 6 8 0 6-1 8-8 10z" style="fill:#fff"/></g><g inkscape:label="top_left"><path inkscape:label="top_left_back" d="m338 421-5 9-17 32c-2 5-6 6-10 7a1333 1333 0 0 0-48 20c-10 9-21 6-26-6-7-15-6-32-6-48 1-6 4-12 7-18l12-31 14-31 10-22 16-26 22-33c3-5 9-6 14-7 11-2 22-5 33-4l33-1 31-1 26-1c9-1 15 3 18 12l14 25c3 3 2 5-1 7l-25 14c-5 3-11 6-14 10-7 8-18 10-27 15l-23 11a361 361 0 0 0-29 36l-19 31" style="fill:#fff"/><path inkscape:label="top_left_front" fill="#38AEE6" d="M458 294c-11 11-17 27-32 32l-37 12c-13 4-24 11-31 22l-29 50-16 34c-3 7-8 12-15 15l-43 23c-6 3-12 2-16-2-3-4-5-10-6-15v-9c-2-17 4-31 12-45l23-36 11-19 14-20 18-36c2-5 5-7 12-7h38c19 2 38-1 56-8l9-4c13-6 14-6 25 4 3 2 5 5 7 9z" style="fill:url(#h)"/></g><g inkscape:label="top_middle"><path inkscape:label="top_middle_back" d="m921 275-5 11c-4 7-7 14-12 19-7 8-15 14-23 20l-19 16c-10 9-21 18-30 28l-43 45c-10 13-22 24-36 32-3 2-8 4-12 4l-17-1c-8-1-13-5-18-10l-29-25-19-22-23-26-13-16c-5-6-5-9-1-14 3-6 9-8 14-7l45 11c16 4 32 7 49 1l30-12 48-22 40-19 41-25c8-5 13-3 20 1l13 11" style="fill:#fff"/><path inkscape:label="top_middle_front" fill="#38AEE6" d="m814 316 49-22 27-14 9-5c5-2 10 2 11 8 1 9-9 20-16 23l-26 10c-20 9-35 23-47 41l-38 55c-9 12-20 21-34 25l-15 3c-2 0-4-2-4-4-4-14-16-23-25-34l-9-13c-4-5-9-9-15-12-14-7-27-13-40-21-5-3-9-8-13-12-3-3-2-6 1-8 5-2 9-2 14 0l34 13c17 6 34 5 51 0 30-9 58-19 86-33z" style="fill:url(#i)"/></g><g inkscape:label="top_right"><path inkscape:label="top_right_back" d="M1069 331c-5-12-14-20-21-30l-12-11c-9-8-17-16-22-27-2-4 0-7 3-10 5-7 13-10 21-11 14-2 29 0 43 1 16 2 29 9 43 13a419 419 0 0 1 92 39c2 2 4 5 4 8l-1 49-1 23-5 35-3 20-7-3c-9-6-18-8-28-11l-29-11-57-19c-7-2-11-6-12-13l-8-42" style="display:inline;fill:#fff"/><path inkscape:label="top_right_front" fill="#38AEE6" d="m1093 264 42 15c15 5 30 6 45 7 4 0 8 2 11 3l13 5c5 1 7 4 7 10v101l-1 14c0 3-5 5-8 4l-15-11-49-28-24-13c-3-2-5-5-6-8l-16-36c-3-5-10-9-15-14l-35-29-14-16v-5c5-7 12-11 21-12s18 0 26 4z" style="display:inline;fill:url(#j)"/></g></svg>