<svg xmlns="http://www.w3.org/2000/svg" class="external-icon" style="pointer-events:none;display:block;width:100%;height:100%" viewBox="0 0 28.57 20"><g><path fill="red" d="M27.97 3.12A3.58 3.58 0 0 0 25.45.6C23.22 0 14.29 0 14.29 0S5.35 0 3.12.6A3.58 3.58 0 0 0 .6 3.12C0 5.35 0 10 0 10s0 4.65.6 6.88a3.58 3.58 0 0 0 2.52 2.52c2.23.6 11.17.6 11.17.6s8.93 0 11.16-.6a3.58 3.58 0 0 0 2.52-2.52c.6-2.23.6-6.88.6-6.88s0-4.65-.6-6.88Z"/><path fill="#fff" d="M11.43 14.29 18.85 10l-7.42-4.28v8.57Z"/></g></svg>